<svg xmlns="http://www.w3.org/2000/svg" width="240" height="240" viewBox="0 0 240 240" role="img" aria-labelledby="title desc">
  <title id="title">Ahmed Khan tenant profile image</title>
  <desc id="desc">A polished illustrated tenant portrait for the demo portal.</desc>
  <defs>
    <linearGradient id="bg" x1="40" y1="24" x2="202" y2="220" gradientUnits="userSpaceOnUse">
      <stop stop-color="#f8f8f8"/>
      <stop offset="1" stop-color="#d8d8d8"/>
    </linearGradient>
    <linearGradient id="shirt" x1="76" y1="146" x2="174" y2="238" gradientUnits="userSpaceOnUse">
      <stop stop-color="#2a2a2a"/>
      <stop offset="1" stop-color="#080808"/>
    </linearGradient>
    <clipPath id="clip">
      <circle cx="120" cy="120" r="120"/>
    </clipPath>
  </defs>
  <g clip-path="url(#clip)">
    <rect width="240" height="240" fill="url(#bg)"/>
    <circle cx="54" cy="54" r="36" fill="#ffffff" opacity=".55"/>
    <circle cx="196" cy="62" r="54" fill="#c8c8c8" opacity=".28"/>
    <circle cx="198" cy="196" r="82" fill="#ffffff" opacity=".34"/>
    <path d="M54 233c7.8-43.2 34.2-69 66-69s58.2 25.8 66 69H54Z" fill="url(#shirt)"/>
    <path d="M94 167c6.2 13 14.8 20 26 20s19.8-7 26-20l-10-13h-32l-10 13Z" fill="#d9b89b"/>
    <path d="M88 91c0-25.4 13.8-43 33.5-43S156 65.6 156 91v25.2c0 24.8-15 43.8-34.5 43.8S88 141 88 116.2V91Z" fill="#e0bea2"/>
    <path d="M91 99c-5.6.4-9.6 4.8-9.6 11 0 7 4.6 12.8 11 13.2L91 99Zm62 0c5.6.4 9.6 4.8 9.6 11 0 7-4.6 12.8-11 13.2L153 99Z" fill="#d5ad8e"/>
    <path d="M88 96c5.8-2.4 9.8-9.4 11.2-20.6 10.6 9.8 28.8 14.8 56.8 15.4v-4.6C156 61.8 143.2 42 120.8 42 98.4 42 84 60.2 84 85.8c0 6.6 1.4 10.2 4 10.2Z" fill="#171717"/>
    <path d="M101 110c3.8-2.2 8-2.2 12.5 0M129.5 110c4.5-2.2 8.7-2.2 12.5 0" stroke="#191919" stroke-width="4" stroke-linecap="round"/>
    <path d="M118 116c-2.2 8-2.2 13.2 0 15.6 1.3 1.4 3.4 1.4 5 0" stroke="#b48267" stroke-width="3" stroke-linecap="round"/>
    <path d="M108 140c8.2 5.4 16.2 5.4 24 0" stroke="#7c4638" stroke-width="4" stroke-linecap="round"/>
    <path d="M76 217h88l-16.8-43c-7.8 12-16.8 18-27.2 18s-19.4-6-27.2-18L76 217Z" fill="#f7f7f7"/>
    <path d="M54 233c4.3-23.9 14.2-42.3 28.2-54.2L104 218l16-27 16 27 21.8-39.2c14 11.9 23.9 30.3 28.2 54.2H54Z" fill="url(#shirt)"/>
    <path d="M73 235c4.3-24.5 12.2-43.8 23.8-57.8M167 235c-4.3-24.5-12.2-43.8-23.8-57.8" stroke="#383838" stroke-width="4" stroke-linecap="round" opacity=".55"/>
  </g>
</svg>
